HIERARCHY
ROOT Hips
{
  OFFSET 5.72205e-005 65.662 3.42586
  CHANNELS 6 Xposition Yposition Zposition Zrotation Xrotation Yrotation
  JOINT Chest
  {
    OFFSET 0 8.7983 -4.7612
    CHANNELS 3 Zrotation Xrotation Yrotation
    JOINT Chest2
    {
      OFFSET 0 8.0291 0.4195
      CHANNELS 3 Zrotation Xrotation Yrotation
      JOINT Chest3
      {
        OFFSET 0 9.9351 -2.2114
        CHANNELS 3 Zrotation Xrotation Yrotation
        JOINT Neck
        {
          OFFSET 0 22.3885 -0.4656
          CHANNELS 3 Zrotation Xrotation Yrotation
          JOINT Head
          {
            OFFSET -0.0001 12.643 3.4389
            CHANNELS 3 Zrotation Xrotation Yrotation
            End Site
            {
              OFFSET 0.0001 17.6655 0.5274
            }
          }
        }
        JOINT LeftCollar
        {
          OFFSET 2.2603 21.606 7.4023
          CHANNELS 3 Zrotation Xrotation Yrotation
          JOINT LeftShoulder
          {
            OFFSET 13.5163 -1.1332 -5.0146
            CHANNELS 3 Zrotation Xrotation Yrotation
            JOINT LeftElbow
            {
              OFFSET -0.0995 -28.05 -0.2431
              CHANNELS 3 Zrotation Xrotation Yrotation
              JOINT LeftWrist
              {
                OFFSET 0.0679 -23.3996 -0.1402
                CHANNELS 3 Zrotation Xrotation Yrotation
                JOINT LeftFinger1
                {
                  OFFSET 0.7932 -9.069 2.5189
                  CHANNELS 3 Zrotation Xrotation Yrotation
                  JOINT LeftFinger11
                  {
                    OFFSET -0.8272 -3.3923 0.5977
                    CHANNELS 3 Zrotation Xrotation Yrotation
                    JOINT LeftFinger12
                    {
                      OFFSET -0.5649 -2.3158 0.4082
                      CHANNELS 3 Zrotation Xrotation Yrotation
                      End Site
                      {
                        OFFSET -0.4919 -1.6479 0.2673
                      }
                    }
                  }
                }
                JOINT LeftFinger2
                {
                  OFFSET 0.9159 -9.2044 0.2193
                  CHANNELS 3 Zrotation Xrotation Yrotation
                  JOINT LeftFinger21
                  {
                    OFFSET 0.0117 -4.1944 -0.0248
                    CHANNELS 3 Zrotation Xrotation Yrotation
                    JOINT LeftFinger22
                    {
                      OFFSET 0.0071 -2.3249 -0.0142
                      CHANNELS 3 Zrotation Xrotation Yrotation
                      End Site
                      {
                        OFFSET -0.1475 -2.0882 0.0028
                      }
                    }
                  }
                }
                JOINT LeftFinger3
                {
                  OFFSET 0.6113 -8.7231 -2.0637
                  CHANNELS 3 Zrotation Xrotation Yrotation
                  JOINT LeftFinger31
                  {
                    OFFSET -0.1927 -3.8059 -0.2383
                    CHANNELS 3 Zrotation Xrotation Yrotation
                    JOINT LeftFinger32
                    {
                      OFFSET -0.1091 -2.1688 -0.1362
                      CHANNELS 3 Zrotation Xrotation Yrotation
                      End Site
                      {
                        OFFSET -0.2358 -1.9176 -0.0906
                      }
                    }
                  }
                }
                JOINT LeftFinger4
                {
                  OFFSET -0.6151 -8.0947 -3.5641
                  CHANNELS 3 Zrotation Xrotation Yrotation
                  JOINT LeftFinger41
                  {
                    OFFSET -0.4882 -2.341 -0.6462
                    CHANNELS 3 Zrotation Xrotation Yrotation
                    JOINT LeftFinger42
                    {
                      OFFSET -0.3575 -1.7167 -0.4742
                      CHANNELS 3 Zrotation Xrotation Yrotation
                      End Site
                      {
                        OFFSET -0.4187 -1.5237 -0.3496
                      }
                    }
                  }
                }
                JOINT LeftFinger0
                {
                  OFFSET -1.42 -1.8761 1.4223
                  CHANNELS 3 Zrotation Xrotation Yrotation
                  JOINT LeftFinger01
                  {
                    OFFSET -1.1471 -3.4929 2.6334
                    CHANNELS 3 Zrotation Xrotation Yrotation
                    JOINT LeftFinger02
                    {
                      OFFSET -0.823 -2.3 1.6571
                      CHANNELS 3 Zrotation Xrotation Yrotation
                      End Site
                      {
                        OFFSET -0.5822 -1.6914 1.1582
                      }
                    }
                  }
                }
              }
            }
          }
        }
        JOINT RightCollar
        {
          OFFSET -2.2603 21.606 7.4023
          CHANNELS 3 Zrotation Xrotation Yrotation
          JOINT RightShoulder
          {
            OFFSET -13.5187 -1.1334 -5.0155
            CHANNELS 3 Zrotation Xrotation Yrotation
            JOINT RightElbow
            {
              OFFSET 0.0994 -28.0499 -0.2431
              CHANNELS 3 Zrotation Xrotation Yrotation
              JOINT RightWrist
              {
                OFFSET -0.0679 -23.3996 -0.1402
                CHANNELS 3 Zrotation Xrotation Yrotation
                JOINT RightFinger1
                {
                  OFFSET -0.7932 -9.0691 2.5189
                  CHANNELS 3 Zrotation Xrotation Yrotation
                  JOINT RightFinger11
                  {
                    OFFSET 0.8272 -3.3923 0.5977
                    CHANNELS 3 Zrotation Xrotation Yrotation
                    JOINT RightFinger12
                    {
                      OFFSET 0.565 -2.3158 0.4082
                      CHANNELS 3 Zrotation Xrotation Yrotation
                      End Site
                      {
                        OFFSET 0.4919 -1.6479 0.2673
                      }
                    }
                  }
                }
                JOINT RightFinger2
                {
                  OFFSET -0.916 -9.2044 0.2193
                  CHANNELS 3 Zrotation Xrotation Yrotation
                  JOINT RightFinger21
                  {
                    OFFSET -0.0117 -4.1944 -0.0248
                    CHANNELS 3 Zrotation Xrotation Yrotation
                    JOINT RightFinger22
                    {
                      OFFSET -0.0071 -2.3249 -0.0142
                      CHANNELS 3 Zrotation Xrotation Yrotation
                      End Site
                      {
                        OFFSET 0.1475 -2.0882 0.0028
                      }
                    }
                  }
                }
                JOINT RightFinger3
                {
                  OFFSET -0.6113 -8.7231 -2.0637
                  CHANNELS 3 Zrotation Xrotation Yrotation
                  JOINT RightFinger31
                  {
                    OFFSET 0.1927 -3.8059 -0.2383
                    CHANNELS 3 Zrotation Xrotation Yrotation
                    JOINT RightFinger32
                    {
                      OFFSET 0.1091 -2.1688 -0.1362
                      CHANNELS 3 Zrotation Xrotation Yrotation
                      End Site
                      {
                        OFFSET 0.2358 -1.9176 -0.0906
                      }
                    }
                  }
                }
                JOINT RightFinger4
                {
                  OFFSET 0.6151 -8.0947 -3.564
                  CHANNELS 3 Zrotation Xrotation Yrotation
                  JOINT RightFinger41
                  {
                    OFFSET 0.4882 -2.341 -0.6462
                    CHANNELS 3 Zrotation Xrotation Yrotation
                    JOINT RightFinger42
                    {
                      OFFSET 0.3574 -1.7166 -0.4742
                      CHANNELS 3 Zrotation Xrotation Yrotation
                      End Site
                      {
                        OFFSET 0.4187 -1.5237 -0.3496
                      }
                    }
                  }
                }
                JOINT RightFinger0
                {
                  OFFSET 1.4199 -1.8761 1.4221
                  CHANNELS 3 Zrotation Xrotation Yrotation
                  JOINT RightFinger01
                  {
                    OFFSET 1.1472 -3.4929 2.6336
                    CHANNELS 3 Zrotation Xrotation Yrotation
                    JOINT RightFinger02
                    {
                      OFFSET 0.8229 -2.3 1.6571
                      CHANNELS 3 Zrotation Xrotation Yrotation
                      End Site
                      {
                        OFFSET 0.5822 -1.6914 1.1582
                      }
                    }
                  }
                }
              }
            }
          }
        }
      }
    }
  }
  JOINT RightHip
  {
    OFFSET -9.412 3.9771 -0.7758
    CHANNELS 3 Zrotation Xrotation Yrotation
    JOINT RightKnee
    {
      OFFSET -0.7531 -40.938 0
      CHANNELS 3 Zrotation Xrotation Yrotation
      JOINT RightAnkle
      {
        OFFSET 0 -40.1986 0
        CHANNELS 3 Zrotation Xrotation Yrotation
        JOINT RightToe
        {
          OFFSET 0 -4.4182 9.239
          CHANNELS 3 Zrotation Xrotation Yrotation
          End Site
          {
            OFFSET 0 0 6.1981
          }
        }
      }
    }
  }
  JOINT LeftHip
  {
    OFFSET 9.4119 3.9773 -0.7758
    CHANNELS 3 Zrotation Xrotation Yrotation
    JOINT LeftKnee
    {
      OFFSET 0.7532 -40.9383 0
      CHANNELS 3 Zrotation Xrotation Yrotation
      JOINT LeftAnkle
      {
        OFFSET 0 -40.1986 0
        CHANNELS 3 Zrotation Xrotation Yrotation
        JOINT LeftToe
        {
          OFFSET 0 -4.4182 9.239
          CHANNELS 3 Zrotation Xrotation Yrotation
          End Site
          {
            OFFSET 0 0 6.1981
          }
        }
      }
    }
  }
}
MOTION
Frames:	5
Frame Time:	0.0333333
5.72205e-005 65.662 3.42586 0 0 -0 0 0 -0 0 0 -0 0 0 -0 0 0 -0 0 0 -0 0 0 -12.5014 88.1196 14.2451 10.6914 -0.00160068 -0.00239207 0.000740045 -8.4365e-005 7.00714e-005 -9.52055e-007 9.93923e-017 -1.98785e-016 -1.59028e-015 9.93923e-017 -5.96354e-016 -1.59028e-015 -9.93923e-017 -5.96354e-016 -1.59028e-015 9.93923e-017 -1.98785e-016 -1.59028e-015 -0.0128176 0.00232552 8.52707e-005 9.93923e-017 5.96354e-016 -0 9.93923e-017 -1.98785e-016 -1.59028e-015 -0.0160551 0.00299681 0.000857156 -2.48481e-016 0 3.18055e-015 9.93923e-017 -1.98785e-016 -1.59028e-015 -0.0125865 0.0031206 0.00282719 0 1.98785e-016 -0 9.93923e-017 -1.98785e-016 -1.59028e-015 9.93923e-017 -5.96354e-016 -1.59028e-015 -9.93923e-017 -5.96354e-016 -1.59028e-015 -0.865644 0.16582 7.03859 -88.0329 10.2057 -10.5567 0.0015593 -0.00248883 -0.000788628 7.87605e-005 4.10553e-005 1.24965e-005 -3.97569e-016 -7.95139e-016 3.18055e-015 -1.98785e-016 -3.97569e-016 3.18055e-015 -1.98785e-016 0 3.18055e-015 -3.97569e-016 -7.95139e-016 3.18055e-015 0.0129473 0.00231697 -8.70038e-005 9.93923e-017 -7.95139e-016 1.59028e-015 -3.97569e-016 -7.95139e-016 3.18055e-015 0.0163314 0.00303369 -0.000872333 3.97569e-016 7.95139e-016 -3.18055e-015 -3.97569e-016 -7.95139e-016 3.18055e-015 0.0145763 0.00367772 -0.00326275 9.93923e-017 -3.97569e-016 -0 -3.97569e-016 -7.95139e-016 3.18055e-015 -1.98785e-016 -3.97569e-016 3.18055e-015 -1.98785e-016 0 3.18055e-015 3.42482 1.32465 -0.0626183 0.000117508 0.717283 0.000978199 -3.4257 -2.04197 -0.0604716 6.47761e-025 0 -0 -3.42483 1.34017 0.0627307 -0.000193936 0.682302 -0.0013703 3.42574 -2.02253 0.0595886 -8.45714e-024 0 -7.40531e-025 
-5.68371 19.9503 -12.2564 -8.05488e-009 10.9996 4.22161e-008 -0.866581 -2.63665 3.06413 -1.59323 -5.31564 6.09781 -1.59323 -5.31565 6.09782 13.997 -7.11854e-006 1.24789e-005 8.77091e-007 7.99383e-008 -1.66714e-006 34.4037 29.3837 -98.9504 53.8712 -0.0775771 32.6318 7.58513 -72.4971 71.1905 -21.1982 4.5328 -50.3513 1.98626e-031 2.38542e-015 -4.77083e-015 -3.18055e-015 0 -1.59028e-015 2.97939e-031 3.57812e-015 -4.77083e-015 1.98626e-031 2.38542e-015 -4.77083e-015 -0.0128273 0.00232359 8.26199e-005 -6.36111e-015 -1.19271e-015 -7.95139e-016 1.98626e-031 2.38542e-015 -4.77083e-015 -0.0160246 0.0029817 0.000853135 2.07607e-006 7.94691e-007 -1.92118e-006 1.98626e-031 2.38542e-015 -4.77083e-015 -0.0126181 0.00312797 0.00283086 8.3049e-006 -8.2604e-006 -7.68435e-006 1.98626e-031 2.38542e-015 -4.77083e-015 -3.18055e-015 0 -1.59028e-015 2.97939e-031 3.57812e-015 -4.77083e-015 14.8782 5.21632 18.9625 -21.9606 -13.1273 -14.0748 -11.4942 -37.293 -5.10026 49.7938 15.7926 24.027 9.15926e-007 -3.85469e-007 -3.99712e-006 3.7777e-006 -1.55738e-005 -3.45949e-006 -0 -4.77083e-015 -0 9.15926e-007 -3.85469e-007 -3.99712e-006 0.012957 0.00229526 -7.62759e-005 -3.18055e-015 -7.95139e-016 -3.18055e-015 9.15926e-007 -3.85469e-007 -3.99712e-006 0.0163661 0.00302797 -0.000872107 -3.18055e-015 5.1684e-015 1.59028e-015 9.15926e-007 -3.85469e-007 -3.99712e-006 0.0145672 0.00366944 -0.00326379 1.59028e-015 7.15625e-015 1.59028e-015 9.15926e-007 -3.85469e-007 -3.99712e-006 3.7777e-006 -1.55738e-005 -3.45949e-006 -0 -4.77083e-015 -0 -98.9456 -45.0375 -126.663 -159.498 59.4801 148.483 12.6993 -29.8403 11.3897 -3.25086e-006 1.22774e-006 5.46189e-008 16.6325 -19.74 -25.8947 -170.809 69.0501 -175.809 -3.28661 44.9707 -31.334 7.76567e-007 2.59069e-006 1.01819e-006 
-5.6757 19.5278 -11.756 1.11856e-007 8.44959 -1.43786e-008 -0.77777 -1.89291 3.0787 -1.45384 -3.82472 6.13652 -1.45385 -3.82474 6.13654 13.9974 -0.401691 0.100165 -0.0885018 -0.190499 0.0829278 33.4004 27.3316 -97.6994 54.1281 -0.0112904 32.6842 7.81141 -72.3115 71.414 -21.281 4.87412 -49.1351 4.58107e-006 7.70979e-006 -9.77522e-006 -1.91089e-006 -1.39583e-005 -1.56008e-005 -3.18055e-015 1.47101e-014 3.18055e-015 4.58107e-006 7.70979e-006 -9.77522e-006 -0.0128492 0.00231006 6.96359e-005 -5.00296e-007 -1.51726e-006 1.56893e-006 4.58107e-006 7.70979e-006 -9.77522e-006 -0.0160133 0.00297712 0.000837086 3.18055e-015 -1.98785e-015 -0 4.58107e-006 7.70979e-006 -9.77522e-006 -0.0125597 0.00309188 0.00281733 -1.61455e-005 2.26845e-006 -1.09286e-005 4.58107e-006 7.70979e-006 -9.77522e-006 -1.91089e-006 -1.39583e-005 -1.56008e-005 -3.18055e-015 1.47101e-014 3.18055e-015 13.783 2.7613 19.3021 -21.761 -13.2473 -14.0105 -11.4941 -37.2929 -5.10024 50.4867 16.4518 22.7854 1.57919e-006 2.56966e-007 1.67749e-006 -1.59028e-015 -1.78906e-014 1.59028e-015 -1.59028e-015 -2.38542e-015 4.77083e-015 1.57919e-006 2.56966e-007 1.67749e-006 0.0129626 0.00230397 -8.36259e-005 -2.20025e-006 6.42932e-007 5.13426e-006 1.57919e-006 2.56966e-007 1.67749e-006 0.0163614 0.00302383 -0.000871076 -4.77083e-015 -3.18055e-015 -1.59028e-015 1.57919e-006 2.56966e-007 1.67749e-006 0.0146109 0.00368212 -0.00325863 3.18055e-015 -1.51076e-014 1.59028e-015 1.57919e-006 2.56966e-007 1.67749e-006 -1.59028e-015 -1.78906e-014 1.59028e-015 -1.59028e-015 -2.38542e-015 4.77083e-015 -96.9511 -44.3993 -123.606 -159.756 58.7869 148.65 12.3941 -30.0177 12.1005 -1.62845e-006 -5.26938e-007 3.5392e-008 18.0668 -17.2263 -25.5614 -170.766 69.1405 -175.862 -1.24222 44.1904 -32.7401 -1.57132e-006 -1.84056e-006 -8.98366e-007 
-5.66911 19.1217 -11.2592 7.16198e-009 5.87846 -6.99285e-008 -0.687148 -1.13513 3.09018 -1.31248 -2.30558 6.1684 -1.31248 -2.30558 6.16841 13.9985 -0.803701 0.200355 -0.176787 -0.381249 0.165622 32.4582 25.2465 -96.5022 54.3849 0.0552419 32.7364 8.03316 -72.1256 71.6329 -21.3714 5.21426 -47.9154 2.75869e-032 -1.98785e-015 7.95139e-016 -0 -3.18055e-015 -0 8.27607e-032 -5.96354e-015 7.95139e-016 2.75869e-032 -1.98785e-015 7.95139e-016 -0.0128173 0.00230971 7.35081e-005 7.07e-006 8.83875e-006 8.60849e-006 2.75869e-032 -1.98785e-015 7.95139e-016 -0.0160702 0.0029959 0.000861162 2.63032e-006 2.97767e-006 7.67691e-006 2.75869e-032 -1.98785e-015 7.95139e-016 -0.0126049 0.00312183 0.00283045 6.62519e-006 5.67735e-006 -4.86528e-006 2.75869e-032 -1.98785e-015 7.95139e-016 -0 -3.18055e-015 -0 8.27607e-032 -5.96354e-015 7.95139e-016 12.6961 0.28339 19.5962 -21.5609 -13.367 -13.9458 -11.4942 -37.293 -5.10024 51.1986 17.0978 21.5282 -1.59028e-015 -3.97569e-015 -3.18055e-015 1.59028e-015 -3.97569e-015 -1.59028e-015 -2.36538e-006 3.50374e-007 -5.3439e-008 -1.59028e-015 -3.97569e-015 -3.18055e-015 0.0129494 0.00229325 -7.44006e-005 -1.76556e-031 3.18055e-015 3.18055e-015 -1.59028e-015 -3.97569e-015 -3.18055e-015 0.0163438 0.00302186 -0.000856775 -3.46992e-006 -3.79261e-006 -1.25827e-006 -1.59028e-015 -3.97569e-015 -3.18055e-015 0.0145634 0.00369499 -0.00326307 -1.59028e-015 -2.78299e-015 -0 -1.59028e-015 -3.97569e-015 -3.18055e-015 1.59028e-015 -3.97569e-015 -1.59028e-015 -2.36538e-006 3.50374e-007 -5.3439e-008 -95.018 -43.6826 -120.604 -160.004 58.0922 148.803 12.0857 -30.2 12.8085 -2.41997e-006 -2.46088e-006 -2.29893e-006 19.4614 -14.7022 -25.3065 -170.723 69.2294 -175.916 0.751048 43.3756 -34.0905 5.17539e-007 -1.58646e-007 6.78991e-007 
-5.66407 18.7321 -10.767 5.18394e-008 3.28853 -1.19355e-006 -0.594789 -0.364623 3.09839 -1.16904 -0.760834 6.19305 -1.16904 -0.760834 6.19306 14.0003 -1.20606 0.300549 -0.264849 -0.572245 0.248071 31.5736 23.1314 -95.3551 54.6023 0.215455 32.7879 8.27866 -72.0382 71.8955 -21.4692 5.55301 -46.6923 1.10348e-032 -7.95139e-016 7.95139e-016 -4.06346e-007 -6.29433e-006 5.88943e-006 -2.585e-006 -1.4855e-006 3.51089e-006 1.10348e-032 -7.95139e-016 7.95139e-016 -0.012845 0.00232174 7.89034e-005 4.98725e-007 1.73206e-006 -1.5667e-006 1.10348e-032 -7.95139e-016 7.95139e-016 -0.0160029 0.0029803 0.000854551 0 6.75868e-015 -0 1.10348e-032 -7.95139e-016 7.95139e-016 -0.0125394 0.00309899 0.00281481 6.36111e-015 -5.1684e-015 -3.97569e-015 1.10348e-032 -7.95139e-016 7.95139e-016 -4.06346e-007 -6.29433e-006 5.88943e-006 -2.585e-006 -1.4855e-006 3.51089e-006 11.6151 -2.21395 19.8446 -21.3609 -13.4866 -13.8806 -11.494 -37.2929 -5.10022 51.9293 17.73 20.2555 2.80036e-006 -2.76432e-006 4.97927e-007 2.36327e-006 3.87463e-006 5.37857e-008 3.18055e-015 -3.97569e-016 3.18055e-015 2.80036e-006 -2.76432e-006 4.97927e-007 0.0129516 0.0023162 -8.43551e-005 4.77083e-015 8.34896e-015 1.59028e-015 2.80036e-006 -2.76432e-006 4.97927e-007 0.0163304 0.00302722 -0.000866224 1.59028e-015 2.38542e-015 1.59028e-015 2.80036e-006 -2.76432e-006 4.97927e-007 0.0145534 0.00366931 -0.00324795 1.59028e-015 -1.74931e-014 1.59028e-015 2.80036e-006 -2.76432e-006 4.97927e-007 2.36327e-006 3.87463e-006 5.37857e-008 3.18055e-015 -3.97569e-016 3.18055e-015 -93.1528 -42.8906 -117.665 -160.243 57.3958 148.943 11.7744 -30.388 13.5134 -1.59028e-015 -2.11597e-006 3.18055e-015 20.8212 -12.1731 -25.1258 -170.681 69.3157 -175.97 2.69311 42.5283 -35.3847 -2.38542e-015 1.59028e-014 2.83268e-015 
